<?xml version="1.0" standalone="no"?>
<!DOCTYPE svg PUBLIC "-//W3C//DTD SVG 20010904//EN"
 "http://www.w3.org/TR/2001/REC-SVG-20010904/DTD/svg10.dtd">
<svg version="1.0" xmlns="http://www.w3.org/2000/svg"
 width="900.000000pt" height="402.000000pt" viewBox="0 0 900.000000 402.000000"
 preserveAspectRatio="xMidYMid meet">
<metadata>
Created by potrace 1.10, written by Peter Selinger 2001-2011
</metadata>
<g transform="translate(0.000000,402.000000) scale(0.100000,-0.100000)"
fill="#000000" stroke="none">
<path d="M1847 2663 c-4 -3 -7 -384 -7 -845 l0 -839 23 3 22 3 3 843 c2 812 1
842 -16 842 -10 0 -22 -3 -25 -7z"/>
<path d="M1077 2413 c-12 -11 -8 -70 6 -81 6 -5 35 -13 62 -16 55 -8 156 -53
195 -89 14 -12 39 -40 55 -62 138 -182 96 -438 -94 -569 -49 -34 -171 -76
-221 -76 -38 0 -142 30 -190 55 -71 37 -180 165 -180 213 0 28 -20 42 -61 42
-47 0 -54 -10 -39 -56 13 -37 63 -119 81 -129 22 -14 5 -46 -46 -86 -30 -24
-54 -49 -55 -56 0 -14 57 -63 73 -63 7 0 27 21 46 46 48 64 67 72 100 41 36
-33 107 -65 163 -72 58 -7 70 -22 66 -77 l-3 -43 -60 -1 c-80 0 -79 0 -114
-30 -30 -25 -40 -57 -23 -68 5 -3 61 -1 125 4 72 6 159 6 229 1 93 -8 116 -7
127 4 12 12 13 18 1 39 -19 37 -69 57 -137 54 l-58 -3 -3 43 c-4 56 8 69 71
77 73 10 161 60 233 131 163 163 191 428 62 595 -15 20 -28 43 -28 50 0 8 25
37 57 65 l56 50 -35 39 -35 38 -31 -34 c-17 -19 -42 -47 -55 -64 l-25 -29 -33
25 c-85 64 -255 120 -282 92z"/>
<path d="M4711 2394 c-27 -35 -27 -59 4 -89 38 -39 86 -32 110 15 12 24 12 31
-3 61 -14 28 -23 35 -53 37 -30 3 -41 -2 -58 -24z"/>
<path d="M7261 2394 c-27 -35 -26 -59 4 -89 64 -65 152 18 99 93 -22 32 -76
30 -103 -4z"/>
<path d="M4373 2394 c-3 -9 -3 -81 0 -160 4 -94 2 -146 -5 -150 -5 -3 -23 9
-38 28 -22 27 -44 39 -90 52 -56 16 -65 16 -123 1 -81 -21 -165 -91 -191 -160
-34 -93 -32 -252 5 -315 5 -8 13 -25 18 -36 24 -56 160 -134 231 -134 50 0
120 31 148 66 33 41 42 43 42 6 0 -15 5 -33 12 -40 14 -14 84 -16 93 -2 8 13
8 837 0 850 -11 17 -95 12 -102 -6z m-123 -300 c54 -19 66 -28 96 -76 22 -35
24 -48 24 -167 0 -145 -10 -174 -72 -221 -28 -21 -44 -25 -105 -25 -68 0 -74
2 -107 34 -71 69 -95 211 -56 328 30 86 67 118 170 142 3 0 25 -6 50 -15z"/>
<path d="M6923 2394 c-3 -9 -3 -83 1 -165 4 -103 3 -149 -4 -149 -6 0 -27 17
-48 39 -85 89 -256 68 -347 -42 -68 -81 -92 -211 -61 -330 19 -71 32 -93 87
-147 45 -44 129 -80 185 -80 46 0 115 33 144 68 25 31 32 34 40 22 5 -8 8 -21
5 -29 -8 -22 15 -41 50 -41 64 0 60 -28 58 430 0 230 -4 424 -8 429 -11 18
-95 14 -102 -5z m-93 -312 c19 -9 47 -35 62 -57 26 -39 27 -45 28 -172 0 -114
-3 -136 -20 -165 -28 -49 -73 -78 -129 -85 -65 -7 -115 11 -148 54 -109 143
-66 393 75 437 52 16 79 13 132 -12z"/>
<path d="M955 2217 c-71 -34 -110 -70 -151 -140 -35 -59 -37 -67 -36 -148 0
-79 3 -89 36 -146 137 -234 434 -227 555 12 76 149 8 336 -151 416 -30 15 -68
23 -123 26 -69 3 -87 1 -130 -20z m207 -86 c59 -25 94 -61 123 -123 30 -65 31
-82 4 -153 -47 -126 -176 -186 -291 -136 -51 22 -79 48 -113 101 -35 56 -35
154 0 210 67 106 174 146 277 101z"/>
<path d="M2402 2163 c-24 -8 -52 -28 -64 -44 -28 -38 -46 -37 -50 4 -3 29 -6
32 -42 35 -21 2 -43 -1 -48 -6 -10 -10 -13 -586 -3 -602 7 -11 75 -13 90 -2 6
4 10 92 10 227 0 203 2 222 20 250 29 43 54 62 101 75 54 15 105 -5 131 -52
16 -29 18 -60 18 -268 l0 -235 50 0 50 0 -4 186 c-5 262 16 327 115 365 36 14
48 14 81 4 66 -22 67 -26 73 -305 l5 -250 34 -3 c19 -2 44 -1 55 2 22 5 22 6
18 243 -4 272 -11 308 -71 348 -95 65 -207 52 -282 -33 -37 -44 -41 -46 -52
-28 -34 53 -62 77 -110 91 -61 18 -69 18 -125 -2z"/>
<path d="M3395 2162 c-71 -24 -154 -109 -177 -183 -44 -138 -13 -276 82 -369
85 -83 189 -108 307 -74 83 24 163 73 163 101 0 12 -9 27 -19 33 -26 13 -24
14 -57 -16 -39 -34 -92 -61 -137 -69 -75 -14 -185 42 -221 113 -18 37 -28 109
-16 117 5 3 110 7 232 8 l223 2 -3 68 c-6 125 -75 224 -186 266 -67 25 -122
25 -191 3z m174 -62 c20 -12 45 -35 56 -53 30 -47 61 -145 50 -156 -8 -8 -269
-16 -353 -12 -10 1 -11 14 -6 54 20 148 142 229 253 167z"/>
<path d="M5282 2164 c-38 -10 -63 -24 -85 -49 -17 -19 -34 -35 -38 -35 -4 0
-9 17 -11 38 -3 32 -6 37 -32 40 -15 2 -38 1 -50 -2 l-21 -5 2 -451 c1 -247 5
-455 8 -460 9 -14 82 -12 91 2 4 7 7 97 5 200 -1 103 0 188 4 188 4 0 24 -18
44 -39 36 -39 101 -71 145 -71 45 0 131 34 174 68 95 76 137 239 94 372 -37
115 -99 178 -203 206 -64 16 -60 16 -127 -2z m82 -66 c63 -18 91 -42 120 -103
22 -47 26 -69 26 -144 0 -101 -19 -159 -71 -209 -54 -53 -159 -56 -219 -6 -51
44 -70 102 -70 221 0 112 13 155 62 200 19 18 79 47 107 52 2 1 22 -4 45 -11z"/>
<path d="M5946 2162 c-72 -24 -146 -99 -175 -180 -20 -52 -23 -76 -19 -145 8
-150 86 -258 214 -298 103 -32 184 -20 302 45 43 24 52 34 52 56 0 40 -35 46
-74 13 -41 -34 -124 -73 -158 -73 -15 0 -49 7 -75 16 -81 27 -136 93 -148 176
l-7 48 233 2 234 3 -3 70 c-4 87 -30 144 -92 205 -76 74 -179 97 -284 62z
m157 -51 c45 -17 84 -68 108 -141 14 -43 19 -74 13 -80 -7 -7 -266 -15 -353
-11 -10 1 -12 12 -6 46 21 145 127 228 238 186z"/>
<path d="M7726 2164 c-52 -16 -113 -51 -134 -77 -11 -13 -10 -20 3 -41 10 -14
21 -26 25 -26 5 0 15 -2 23 -5 8 -4 24 9 41 34 47 67 157 93 220 52 36 -24 66
-98 66 -163 0 -55 -9 -59 -54 -25 -46 34 -82 47 -130 47 -59 0 -103 -17 -154
-57 -55 -45 -82 -98 -82 -163 0 -88 51 -162 138 -200 73 -33 131 -25 235 31
l37 20 10 -26 c9 -23 15 -26 52 -23 l42 3 -3 245 c-3 276 -7 294 -78 342 -71
49 -164 60 -257 32z m147 -279 c19 -8 49 -32 66 -54 26 -33 31 -48 31 -93 0
-47 -4 -58 -32 -87 -33 -34 -104 -71 -135 -71 -27 1 -96 34 -114 56 -60 72
-34 200 50 244 44 23 87 25 134 5z"/>
<path d="M4715 2150 c-10 -16 -7 -592 3 -602 5 -5 29 -8 53 -6 l44 3 0 305 0
305 -47 3 c-25 2 -49 -2 -53 -8z"/>
<path d="M7266 2151 c-11 -17 -8 -593 2 -603 5 -5 29 -8 53 -6 l44 3 0 305 0
305 -47 3 c-25 2 -49 -2 -52 -7z"/>
</g>
</svg>
